<?xml version="1.0" encoding="UTF-8"?>
<!DOCTYPE svg PUBLIC "-//W3C//DTD SVG 1.1//EN" "http://www.w3.org/Graphics/SVG/1.1/DTD/svg11.dtd">
<svg xmlns="http://www.w3.org/2000/svg" version="1.1" width="1225px" height="567px" style="shape-rendering:geometricPrecision; text-rendering:geometricPrecision; image-rendering:optimizeQuality; fill-rule:evenodd; clip-rule:evenodd" xmlns:xlink="http://www.w3.org/1999/xlink">
<g><path style="opacity:1" fill="#fefefe" d="M -0.5,-0.5 C 407.833,-0.5 816.167,-0.5 1224.5,-0.5C 1224.5,188.5 1224.5,377.5 1224.5,566.5C 816.167,566.5 407.833,566.5 -0.5,566.5C -0.5,377.5 -0.5,188.5 -0.5,-0.5 Z"/></g>
<g><path style="opacity:1" fill="#a85521" d="M 714.5,157.5 C 718.298,158.483 722.298,158.817 726.5,158.5C 726.175,165.687 726.509,172.687 727.5,179.5C 727.666,189.172 727.5,198.839 727,208.5C 726.031,225.569 724.365,242.569 722,259.5C 723.216,309.9 719.383,359.9 710.5,409.5C 707.472,405.639 704.639,401.639 702,397.5C 682.07,358.04 665.07,317.373 651,275.5C 649.842,271.203 648.842,266.869 648,262.5C 647.394,235.329 645.061,208.329 641,181.5C 634.747,207.26 627.08,232.593 618,257.5C 598.051,305.399 577.551,353.066 556.5,400.5C 539.179,401.5 521.846,401.833 504.5,401.5C 505.521,379.18 506.188,356.847 506.5,334.5C 506.166,319.491 506,304.491 506,289.5C 506.414,289.957 506.914,290.291 507.5,290.5C 507.833,288.167 508.167,285.833 508.5,283.5C 507.02,253.351 506.02,223.184 505.5,193C 506.329,181.031 507.996,169.198 510.5,157.5C 548.513,157.967 586.513,158.967 624.5,160.5C 654.434,157.851 684.434,156.851 714.5,157.5 Z"/></g>
<g><path style="opacity:1" fill="#211f20" d="M 242.5,159.5 C 263.833,159.5 285.167,159.5 306.5,159.5C 306.168,212.336 306.501,265.003 307.5,317.5C 310.153,344.314 324.986,356.98 352,355.5C 378.558,355.442 392.058,342.109 392.5,315.5C 393.499,263.669 393.832,211.669 393.5,159.5C 414.833,159.5 436.167,159.5 457.5,159.5C 457.667,213.168 457.5,266.834 457,320.5C 451.831,374.667 421.997,403.501 367.5,407C 347.293,408.485 327.293,407.151 307.5,403C 267.314,391.801 245.814,365.301 243,323.5C 242.5,268.834 242.333,214.168 242.5,159.5 Z"/></g>
<g><path style="opacity:1" fill="#828081" d="M 242.5,159.5 C 263.994,158.503 285.66,158.169 307.5,158.5C 307.5,211.5 307.5,264.5 307.5,317.5C 306.501,265.003 306.168,212.336 306.5,159.5C 285.167,159.5 263.833,159.5 242.5,159.5 Z"/></g>
<g><path style="opacity:1" fill="#817f80" d="M 457.5,159.5 C 436.167,159.5 414.833,159.5 393.5,159.5C 393.832,211.669 393.499,263.669 392.5,315.5C 392.5,263.167 392.5,210.833 392.5,158.5C 414.34,158.169 436.006,158.503 457.5,159.5 Z"/></g>
<g><path style="opacity:1" fill="#c48864" d="M 714.5,157.5 C 718.833,157.5 723.167,157.5 727.5,157.5C 727.5,164.833 727.5,172.167 727.5,179.5C 726.509,172.687 726.175,165.687 726.5,158.5C 722.298,158.817 718.298,158.483 714.5,157.5 Z"/></g>
<g><path style="opacity:1" fill="#211f20" d="M 774.5,158.5 C 822.847,158.101 871.181,158.601 919.5,160C 968.058,167.523 986.558,195.023 975,242.5C 968.833,254 960,262.833 948.5,269C 983.724,282.546 997.557,308.046 990,345.5C 983.537,370.631 968.037,387.464 943.5,396C 935.305,398.22 926.972,399.887 918.5,401C 870.501,401.5 822.501,401.667 774.5,401.5C 774.5,320.5 774.5,239.5 774.5,158.5 Z"/></g>
<g><path style="opacity:1" fill="#7f7d7e" d="M 890.5,207.5 C 873.5,207.5 856.5,207.5 839.5,207.5C 839.5,222.833 839.5,238.167 839.5,253.5C 856.833,253.5 874.167,253.5 891.5,253.5C 874.008,254.497 856.341,254.83 838.5,254.5C 838.5,238.5 838.5,222.5 838.5,206.5C 856.008,206.17 873.341,206.503 890.5,207.5 Z"/></g>
<g><path style="opacity:1" fill="#fefefe" d="M 890.5,207.5 C 912.312,208.475 920.478,219.475 915,240.5C 909.675,249.085 901.842,253.418 891.5,253.5C 874.167,253.5 856.833,253.5 839.5,253.5C 839.5,238.167 839.5,222.833 839.5,207.5C 856.5,207.5 873.5,207.5 890.5,207.5 Z"/></g>
<g><path style="opacity:1" fill="#fefefe" d="M 893.5,296.5 C 916.893,296.056 927.726,307.389 926,330.5C 922.776,343.046 914.609,349.879 901.5,351C 880.836,351.5 860.169,351.667 839.5,351.5C 839.5,333.167 839.5,314.833 839.5,296.5C 857.5,296.5 875.5,296.5 893.5,296.5 Z"/></g>
<g><path style="opacity:1" fill="#aa5824" d="M 643.5,295.5 C 649.198,295.94 653.698,298.606 657,303.5C 655.673,309.138 654.173,314.805 652.5,320.5C 634.879,316.512 617.545,311.679 600.5,306C 615.118,303.129 629.451,299.629 643.5,295.5 Z"/></g>
<g><path style="opacity:1" fill="#8f8d8e" d="M 893.5,296.5 C 875.5,296.5 857.5,296.5 839.5,296.5C 839.5,314.833 839.5,333.167 839.5,351.5C 838.503,333.007 838.17,314.341 838.5,295.5C 857.008,295.17 875.341,295.503 893.5,296.5 Z"/></g>
</svg>
