<?xml version="1.0" encoding="UTF-8"?>
<!DOCTYPE svg PUBLIC "-//W3C//DTD SVG 1.1//EN" "http://www.w3.org/Graphics/SVG/1.1/DTD/svg11.dtd">
<svg xmlns="http://www.w3.org/2000/svg" version="1.1" width="320px" height="211px" style="shape-rendering:geometricPrecision; text-rendering:geometricPrecision; image-rendering:optimizeQuality; fill-rule:evenodd; clip-rule:evenodd" xmlns:xlink="http://www.w3.org/1999/xlink">
<g><path style="opacity:0.89" fill="#656565" d="M 168.5,17.5 C 161.877,16.6204 155.211,16.287 148.5,16.5C 151.215,15.1141 154.215,14.4474 157.5,14.5C 161.579,14.4336 165.245,15.4336 168.5,17.5 Z"/></g>
<g><path style="opacity:0.133" fill="#cacaca" d="M 148.5,16.5 C 147.22,17.9313 145.553,18.5979 143.5,18.5C 144.78,17.0687 146.447,16.4021 148.5,16.5 Z"/></g>
<g><path style="opacity:1" fill="#070707" d="M 148.5,16.5 C 155.211,16.287 161.877,16.6204 168.5,17.5C 170.181,19.0075 172.181,20.0075 174.5,20.5C 176.153,20.6596 177.486,21.3263 178.5,22.5C 179.659,24.2503 181.326,25.2503 183.5,25.5C 185.153,25.6596 186.486,26.3263 187.5,27.5C 188.659,29.2503 190.326,30.2503 192.5,30.5C 194.153,30.6596 195.486,31.3263 196.5,32.5C 197.659,34.2503 199.326,35.2503 201.5,35.5C 203.153,35.6596 204.486,36.3263 205.5,37.5C 205.973,38.9063 206.973,39.573 208.5,39.5C 209.833,40.8333 209.833,42.1667 208.5,43.5C 195.075,50.4085 181.741,57.5752 168.5,65C 162.678,67.0599 156.678,67.8933 150.5,67.5C 141.696,62.262 132.696,57.262 123.5,52.5C 122.631,50.283 122.298,47.9496 122.5,45.5C 135.677,45.8288 148.677,45.4955 161.5,44.5C 161.5,43.5 161.5,42.5 161.5,41.5C 146.99,41.1707 132.657,41.5041 118.5,42.5C 118.5,44.5 118.5,46.5 118.5,48.5C 114.562,47.7812 111.062,46.1145 108,43.5C 107.252,41.1599 107.752,39.1599 109.5,37.5C 109.842,36.6618 110.508,36.3284 111.5,36.5C 114.146,35.5134 116.812,34.5134 119.5,33.5C 120.298,33.0431 120.631,32.3764 120.5,31.5C 124.497,30.3973 128.164,28.7306 131.5,26.5C 131.842,25.6618 132.508,25.3284 133.5,25.5C 135.795,24.8645 137.461,23.5311 138.5,21.5C 140.674,21.2503 142.341,20.2503 143.5,18.5C 145.553,18.5979 147.22,17.9313 148.5,16.5 Z"/></g>
<g><path style="opacity:0.4" fill="#989898" d="M 168.5,17.5 C 171.089,17.461 173.089,18.461 174.5,20.5C 172.181,20.0075 170.181,19.0075 168.5,17.5 Z"/></g>
<g><path style="opacity:0.133" fill="#cdcdcd" d="M 143.5,18.5 C 142.341,20.2503 140.674,21.2503 138.5,21.5C 139.659,19.7497 141.326,18.7497 143.5,18.5 Z"/></g>
<g><path style="opacity:0.318" fill="#a8a8a8" d="M 178.5,22.5 C 180.674,22.7497 182.341,23.7497 183.5,25.5C 181.326,25.2503 179.659,24.2503 178.5,22.5 Z"/></g>
<g><path style="opacity:0.133" fill="#d6d6d6" d="M 134.5,23.5 C 134.167,24.1667 133.833,24.8333 133.5,25.5C 132.508,25.3284 131.842,25.6618 131.5,26.5C 130.833,26.5 130.167,26.5 129.5,26.5C 130.659,24.7497 132.326,23.7497 134.5,23.5 Z"/></g>
<g><path style="opacity:0.922" fill="#4d4d4d" d="M 138.5,21.5 C 137.461,23.5311 135.795,24.8645 133.5,25.5C 133.833,24.8333 134.167,24.1667 134.5,23.5C 135.514,22.3263 136.847,21.6596 138.5,21.5 Z"/></g>
<g><path style="opacity:0.894" fill="#818181" d="M 129.5,26.5 C 130.167,26.5 130.833,26.5 131.5,26.5C 128.164,28.7306 124.497,30.3973 120.5,31.5C 123.008,29.0764 126.008,27.4097 129.5,26.5 Z"/></g>
<g><path style="opacity:0.4" fill="#a1a1a1" d="M 187.5,27.5 C 189.674,27.7497 191.341,28.7497 192.5,30.5C 190.326,30.2503 188.659,29.2503 187.5,27.5 Z"/></g>
<g><path style="opacity:0.894" fill="#8a8a8a" d="M 120.5,31.5 C 120.631,32.3764 120.298,33.0431 119.5,33.5C 116.812,34.5134 114.146,35.5134 111.5,36.5C 114.008,34.0764 117.008,32.4097 120.5,31.5 Z"/></g>
<g><path style="opacity:0.4" fill="#999999" d="M 196.5,32.5 C 198.674,32.7497 200.341,33.7497 201.5,35.5C 199.326,35.2503 197.659,34.2503 196.5,32.5 Z"/></g>
<g><path style="opacity:0.078" fill="#b2b2b2" d="M 205.5,37.5 C 207.027,37.427 208.027,38.0937 208.5,39.5C 206.973,39.573 205.973,38.9063 205.5,37.5 Z"/></g>
<g><path style="opacity:0.16" fill="#d2d2d2" d="M 118.5,42.5 C 132.657,41.5041 146.99,41.1707 161.5,41.5C 161.5,42.5 161.5,43.5 161.5,44.5C 161.167,44.5 160.833,44.5 160.5,44.5C 146.873,42.5176 132.873,41.8509 118.5,42.5 Z"/></g>
<g><path style="opacity:1" fill="#0e0e0e" d="M 120.5,50.5 C 121.113,54.937 121.78,59.2703 122.5,63.5C 123.461,65.2646 123.795,67.2646 123.5,69.5C 123.5,75.8333 123.5,82.1667 123.5,88.5C 121.167,88.5 118.833,88.5 116.5,88.5C 116.334,81.825 116.5,75.1583 117,68.5C 117.692,62.1513 118.858,56.1513 120.5,50.5 Z"/></g>
<g><path style="opacity:0.524" fill="#737373" d="M 122.5,45.5 C 122.298,47.9496 122.631,50.283 123.5,52.5C 122.833,52.5 122.5,52.8333 122.5,53.5C 122.5,56.8333 122.5,60.1667 122.5,63.5C 121.78,59.2703 121.113,54.937 120.5,50.5C 121.167,48.8333 121.833,47.1667 122.5,45.5 Z"/></g>
<g><path style="opacity:0.262" fill="#bcbcbc" d="M 109.5,37.5 C 107.752,39.1599 107.252,41.1599 108,43.5C 111.062,46.1145 114.562,47.7812 118.5,48.5C 118.56,49.0431 118.893,49.3764 119.5,49.5C 120.452,47.9547 120.785,46.288 120.5,44.5C 133.833,44.5 147.167,44.5 160.5,44.5C 160.833,44.5 161.167,44.5 161.5,44.5C 148.677,45.4955 135.677,45.8288 122.5,45.5C 121.833,47.1667 121.167,48.8333 120.5,50.5C 118.858,56.1513 117.692,62.1513 117,68.5C 116.5,75.1583 116.334,81.825 116.5,88.5C 118.833,88.5 121.167,88.5 123.5,88.5C 123.5,82.1667 123.5,75.8333 123.5,69.5C 124.491,75.979 124.824,82.6457 124.5,89.5C 121.5,89.5 118.5,89.5 115.5,89.5C 116.047,76.146 116.047,62.8127 115.5,49.5C 111.226,47.8809 107.893,45.2142 105.5,41.5C 105.965,39.1917 107.299,37.8584 109.5,37.5 Z"/></g>
<g><path style="opacity:0.165" fill="#c4c4c4" d="M 122.5,53.5 C 122.5,52.8333 122.833,52.5 123.5,52.5C 132.696,57.262 141.696,62.262 150.5,67.5C 140.914,63.3739 131.581,58.7072 122.5,53.5 Z"/></g>
<g><path style="opacity:0.212" fill="#bfbfbf" d="M 208.5,43.5 C 195.517,52.2692 181.85,60.1025 167.5,67C 161.739,68.7031 156.072,68.8698 150.5,67.5C 156.678,67.8933 162.678,67.0599 168.5,65C 181.741,57.5752 195.075,50.4085 208.5,43.5 Z"/></g>
<g><path style="opacity:0.82" fill="#828282" d="M 131.5,67.5 C 132.209,66.596 133.209,66.2627 134.5,66.5C 137.696,67.9287 140.696,69.5954 143.5,71.5C 139.5,70.1667 135.5,68.8333 131.5,67.5 Z"/></g>
<g><path style="opacity:1" fill="#050505" d="M 131.5,67.5 C 135.5,68.8333 139.5,70.1667 143.5,71.5C 144.635,73.2132 146.302,73.8799 148.5,73.5C 148.833,73.5 149.167,73.5 149.5,73.5C 156.595,76.0514 163.929,75.8848 171.5,73C 173.859,71.7575 175.859,70.2575 177.5,68.5C 179.167,68.5 180.833,68.5 182.5,68.5C 182.232,70.099 182.566,71.4324 183.5,72.5C 183.171,75.2282 183.837,77.5615 185.5,79.5C 185.5,80.8333 185.5,82.1667 185.5,83.5C 180.687,82.7413 176.687,84.0747 173.5,87.5C 170.802,87.8449 168.802,89.1782 167.5,91.5C 165.251,92.0798 163.585,93.4131 162.5,95.5C 159.887,96.4349 157.221,96.6015 154.5,96C 147.495,88.3307 138.829,84.164 128.5,83.5C 130.703,78.4138 131.703,73.0805 131.5,67.5 Z"/></g>
<g><path style="opacity:0.863" fill="#777777" d="M 183.5,72.5 C 182.566,71.4324 182.232,70.099 182.5,68.5C 180.833,68.5 179.167,68.5 177.5,68.5C 182.164,65.1918 184.164,66.5251 183.5,72.5 Z"/></g>
<g><path style="opacity:0.49" fill="#a1a1a1" d="M 143.5,71.5 C 145.403,71.7959 147.07,72.4625 148.5,73.5C 146.302,73.8799 144.635,73.2132 143.5,71.5 Z"/></g>
<g><path style="opacity:0.753" fill="#818181" d="M 177.5,68.5 C 175.859,70.2575 173.859,71.7575 171.5,73C 163.929,75.8848 156.595,76.0514 149.5,73.5C 154.129,74.481 158.796,74.6477 163.5,74C 168.411,72.6438 173.077,70.8104 177.5,68.5 Z"/></g>
<g><path style="opacity:0.8" fill="#8f8f8f" d="M 183.5,72.5 C 184.612,74.5994 185.279,76.9327 185.5,79.5C 183.837,77.5615 183.171,75.2282 183.5,72.5 Z"/></g>
<g><path style="opacity:0.075" fill="#bfbfbf" d="M 185.5,79.5 C 186.807,81.2232 186.807,83.0565 185.5,85C 181.371,85.3265 177.371,86.1598 173.5,87.5C 176.687,84.0747 180.687,82.7413 185.5,83.5C 185.5,82.1667 185.5,80.8333 185.5,79.5 Z"/></g>
<g><path style="opacity:0.114" fill="#cccccc" d="M 134.5,66.5 C 133.209,66.2627 132.209,66.596 131.5,67.5C 131.703,73.0805 130.703,78.4138 128.5,83.5C 138.829,84.164 147.495,88.3307 154.5,96C 157.221,96.6015 159.887,96.4349 162.5,95.5C 160.814,98.0047 158.481,98.838 155.5,98C 150.044,93.2155 144.044,89.2155 137.5,86C 134.044,85.8198 130.711,85.1532 127.5,84C 127.043,83.586 126.709,83.086 126.5,82.5C 129.25,77.1654 130.584,71.4988 130.5,65.5C 132.099,65.2322 133.432,65.5655 134.5,66.5 Z"/></g>
<g><path style="opacity:0.051" fill="#cbcbcb" d="M 173.5,87.5 C 171.853,89.3264 169.853,90.6597 167.5,91.5C 168.802,89.1782 170.802,87.8449 173.5,87.5 Z"/></g>
<g><path style="opacity:0.043" fill="#c8c8c8" d="M 167.5,91.5 C 166.415,93.5869 164.749,94.9202 162.5,95.5C 163.585,93.4131 165.251,92.0798 167.5,91.5 Z"/></g>
<g><path style="opacity:1" fill="#b4b4b4" d="M 13.5,123.5 C 17.1064,123.211 20.6064,123.544 24,124.5C 25.6159,133.579 27.6159,142.579 30,151.5C 30.4983,154.817 30.665,158.15 30.5,161.5C 28.5328,161.739 26.6995,161.406 25,160.5C 23.7633,156.94 23.2633,153.273 23.5,149.5C 20.8333,149.5 18.1667,149.5 15.5,149.5C 15.1564,153.228 14.4898,156.895 13.5,160.5C 11.604,161.466 9.60395,161.799 7.5,161.5C 9.78048,148.869 11.7805,136.202 13.5,123.5 Z"/></g>
<g><path style="opacity:0.998" fill="#b3b3b3" d="M 155.5,160.5 C 152.144,154.699 150.811,148.366 151.5,141.5C 150.747,135.246 152.08,129.579 155.5,124.5C 160.842,123.239 166.175,123.239 171.5,124.5C 171.5,126.167 171.5,127.833 171.5,129.5C 160.426,126.741 156.093,130.908 158.5,142C 158.399,146.281 158.899,150.448 160,154.5C 163.73,155.46 167.563,155.793 171.5,155.5C 171.5,157.167 171.5,158.833 171.5,160.5C 166.167,161.833 160.833,161.833 155.5,160.5 Z"/></g>
<g><path style="opacity:0.999" fill="#b5b5b5" d="M 217.5,123.5 C 219.442,125.391 221.275,127.391 223,129.5C 223.913,138.576 223.58,147.576 222,156.5C 220.661,159.094 218.494,160.594 215.5,161C 211.476,161.497 207.476,161.331 203.5,160.5C 200.084,154.715 198.751,148.381 199.5,141.5C 199.667,137.833 199.833,134.167 200,130.5C 200.564,128.113 201.73,126.113 203.5,124.5C 205.807,122.953 208.473,122.287 211.5,122.5C 213.696,122.505 215.696,122.838 217.5,123.5 Z M 210.5,129.5 C 211.833,129.5 213.167,129.5 214.5,129.5C 215.559,136.798 215.726,144.131 215,151.5C 212.244,156.447 209.911,156.447 208,151.5C 207.333,145.833 207.333,140.167 208,134.5C 208.366,132.548 209.199,130.882 210.5,129.5 Z"/></g>
<g><path style="opacity:0.999" fill="#b5b5b5" d="M 274.5,125.5 C 274.92,135.247 274.42,144.914 273,154.5C 272.208,156.587 271.041,158.421 269.5,160C 265.582,161.156 261.582,161.656 257.5,161.5C 252.093,154.665 250.093,146.831 251.5,138C 251.667,133.5 251.833,129 252,124.5C 254.163,123.232 256.33,123.232 258.5,124.5C 258.267,134.865 258.6,145.198 259.5,155.5C 261.527,155.662 263.527,155.495 265.5,155C 266.126,154.25 266.626,153.416 267,152.5C 267.5,142.839 267.666,133.172 267.5,123.5C 269.288,122.378 271.288,122.211 273.5,123C 274.252,123.671 274.586,124.504 274.5,125.5 Z"/></g>
<g><path style="opacity:0.467" fill="#e5e5e5" d="M 58.5,122.5 C 61.1194,122.232 63.6194,122.565 66,123.5C 66.9988,133.476 67.6655,143.476 68,153.5C 71.6667,154.167 75.3333,154.833 79,155.5C 80.9997,144.835 82.9997,134.168 85,123.5C 88.7436,122.374 92.577,122.207 96.5,123C 101.124,135.68 103.791,148.847 104.5,162.5C 101.315,162.98 98.4815,162.314 96,160.5C 95.1744,157.207 94.6744,153.874 94.5,150.5C 92.8333,150.5 91.1667,150.5 89.5,150.5C 89.1564,154.228 88.4898,157.895 87.5,161.5C 86.1667,161.833 84.8333,162.167 83.5,162.5C 75.1586,161.96 66.8253,161.293 58.5,160.5C 57.1857,147.833 57.1857,135.167 58.5,122.5 Z"/></g>
<g><path style="opacity:0.999" fill="#b3b3b3" d="M 86.5,123.5 C 89.5184,123.335 92.5184,123.502 95.5,124C 99.7509,136.054 102.084,148.554 102.5,161.5C 100.856,161.714 99.3561,161.38 98,160.5C 97.0593,157.185 96.226,153.852 95.5,150.5C 92.9135,149.52 90.2469,149.187 87.5,149.5C 87.3542,153.519 87.0209,157.519 86.5,161.5C 84.5,161.5 82.5,161.5 80.5,161.5C 82.0719,148.737 84.0719,136.07 86.5,123.5 Z"/></g>
<g><path style="opacity:0.996" fill="#b2b2b2" d="M 59.5,123.5 C 61.4672,123.261 63.3005,123.594 65,124.5C 65.3333,134.5 65.6667,144.5 66,154.5C 69.73,155.46 73.5633,155.793 77.5,155.5C 77.5,157.167 77.5,158.833 77.5,160.5C 71.5,160.5 65.5,160.5 59.5,160.5C 59.5,148.167 59.5,135.833 59.5,123.5 Z"/></g>
<g><path style="opacity:0.376" fill="#e2e2e2" d="M 258.5,124.5 C 256.33,123.232 254.163,123.232 252,124.5C 251.833,129 251.667,133.5 251.5,138C 250.093,146.831 252.093,154.665 257.5,161.5C 253.408,160.013 251.242,157.013 251,152.5C 250.667,144.833 250.333,137.167 250,129.5C 247.619,130.435 245.119,130.768 242.5,130.5C 242.5,141.167 242.5,151.833 242.5,162.5C 239.552,162.777 236.719,162.444 234,161.5C 233.5,151.172 233.334,140.839 233.5,130.5C 227.073,132.238 224.406,129.905 225.5,123.5C 235.357,123.743 245.191,123.409 255,122.5C 256.681,122.608 257.848,123.275 258.5,124.5 Z"/></g>
<g><path style="opacity:0.998" fill="#b2b2b2" d="M 227.5,124.5 C 234.5,124.5 241.5,124.5 248.5,124.5C 248.714,126.144 248.38,127.644 247.5,129C 245.527,129.495 243.527,129.662 241.5,129.5C 241.5,140.167 241.5,150.833 241.5,161.5C 239.5,161.5 237.5,161.5 235.5,161.5C 235.5,150.833 235.5,140.167 235.5,129.5C 232.833,129.5 230.167,129.5 227.5,129.5C 227.5,127.833 227.5,126.167 227.5,124.5 Z"/></g>
<g><path style="opacity:0.015" fill="#ededed" d="M 18.5,133.5 C 20.9745,136.251 21.9745,139.584 21.5,143.5C 20.1667,143.5 18.8333,143.5 17.5,143.5C 17.3424,140.098 17.6758,136.764 18.5,133.5 Z"/></g>
<g><path style="opacity:0.267" fill="#e6e6e6" d="M 208.5,128.5 C 211.119,128.232 213.619,128.565 216,129.5C 216.667,137.5 216.667,145.5 216,153.5C 213.805,156.037 210.972,157.037 207.5,156.5C 205.872,147.04 206.205,137.707 208.5,128.5 Z M 210.5,129.5 C 209.199,130.882 208.366,132.548 208,134.5C 207.333,140.167 207.333,145.833 208,151.5C 209.911,156.447 212.244,156.447 215,151.5C 215.726,144.131 215.559,136.798 214.5,129.5C 213.167,129.5 211.833,129.5 210.5,129.5 Z"/></g>
<g><path style="opacity:0.86" fill="#dfdfdf" d="M 203.5,124.5 C 201.73,126.113 200.564,128.113 200,130.5C 199.833,134.167 199.667,137.833 199.5,141.5C 198.751,148.381 200.084,154.715 203.5,160.5C 201.376,159.969 199.876,158.635 199,156.5C 196.855,146.945 197.022,137.445 199.5,128C 200.072,125.926 201.405,124.76 203.5,124.5 Z"/></g>
<g><path style="opacity:0.188" fill="#e8e8e8" d="M 13.5,123.5 C 11.7805,136.202 9.78048,148.869 7.5,161.5C 6.37086,159.372 6.20419,157.039 7,154.5C 8.66667,144.5 10.3333,134.5 12,124.5C 12.3826,123.944 12.8826,123.611 13.5,123.5 Z"/></g>
<g><path style="opacity:0.545" fill="#e0e0e0" d="M 91.5,132.5 C 93.2499,136.183 93.9166,140.183 93.5,144.5C 92.1667,144.5 90.8333,144.5 89.5,144.5C 89.0792,140.258 89.7459,136.258 91.5,132.5 Z"/></g>
<g><path style="opacity:0.409" fill="#e5e5e5" d="M 267.5,123.5 C 267.666,133.172 267.5,142.839 267,152.5C 266.626,153.416 266.126,154.25 265.5,155C 263.527,155.495 261.527,155.662 259.5,155.5C 258.6,145.198 258.267,134.865 258.5,124.5C 259.545,134.323 260.212,144.323 260.5,154.5C 263.86,155.21 265.693,153.876 266,150.5C 266.17,141.324 266.67,132.324 267.5,123.5 Z"/></g>
<g><path style="opacity:0.295" fill="#eaeaea" d="M 285.5,123.5 C 283.208,123.244 281.041,123.577 279,124.5C 278.333,136.5 278.333,148.5 279,160.5C 281.041,161.423 283.208,161.756 285.5,161.5C 285.17,154.468 285.503,147.468 286.5,140.5C 290.014,144.579 293.18,144.246 296,139.5C 296.333,146.5 296.667,153.5 297,160.5C 299.041,161.423 301.208,161.756 303.5,161.5C 303.87,149.12 303.37,136.786 302,124.5C 300.612,123.446 299.112,123.28 297.5,124C 295.226,126.344 294.059,129.178 294,132.5C 293.092,134.439 291.592,135.439 289.5,135.5C 289.5,134.167 289.5,132.833 289.5,131.5C 290.222,131.918 290.722,132.584 291,133.5C 291.333,133.167 291.667,132.833 292,132.5C 292.739,128.938 294.239,125.772 296.5,123C 299.834,121.788 302.334,122.621 304,125.5C 304.5,137.829 304.667,150.162 304.5,162.5C 301.552,162.777 298.719,162.444 296,161.5C 295.501,155.843 295.334,150.176 295.5,144.5C 292.552,144.777 289.719,144.444 287,143.5C 286.5,149.825 286.334,156.158 286.5,162.5C 283.552,162.777 280.719,162.444 278,161.5C 277.667,155.5 277.333,149.5 277,143.5C 276,147.833 275,152.167 274,156.5C 271.792,161.105 268.125,163.105 263,162.5C 260.967,162.494 259.134,162.161 257.5,161.5C 261.582,161.656 265.582,161.156 269.5,160C 271.041,158.421 272.208,156.587 273,154.5C 274.42,144.914 274.92,135.247 274.5,125.5C 275.314,127.631 275.814,129.964 276,132.5C 277.116,129.439 277.949,126.272 278.5,123C 281.039,122.204 283.372,122.371 285.5,123.5 Z"/></g>
<g><path style="opacity:1" fill="#b6b6b6" d="M 285.5,123.5 C 287.873,125.579 289.206,128.246 289.5,131.5C 289.5,132.833 289.5,134.167 289.5,135.5C 291.592,135.439 293.092,134.439 294,132.5C 294.059,129.178 295.226,126.344 297.5,124C 299.112,123.28 300.612,123.446 302,124.5C 303.37,136.786 303.87,149.12 303.5,161.5C 301.208,161.756 299.041,161.423 297,160.5C 296.667,153.5 296.333,146.5 296,139.5C 293.18,144.246 290.014,144.579 286.5,140.5C 285.503,147.468 285.17,154.468 285.5,161.5C 283.208,161.756 281.041,161.423 279,160.5C 278.333,148.5 278.333,136.5 279,124.5C 281.041,123.577 283.208,123.244 285.5,123.5 Z"/></g>
<g><path style="opacity:0.213" fill="#e3e3e3" d="M 155.5,124.5 C 152.08,129.579 150.747,135.246 151.5,141.5C 150.811,148.366 152.144,154.699 155.5,160.5C 153.112,159.781 151.612,158.115 151,155.5C 150.985,157.791 150.818,159.958 150.5,162C 148.167,162.667 145.833,162.667 143.5,162C 141.81,158.379 140.81,154.546 140.5,150.5C 138.856,150.286 137.356,150.62 136,151.5C 135.416,155.095 134.582,158.595 133.5,162C 130.854,162.497 128.187,162.664 125.5,162.5C 125.686,156.415 126.186,150.415 127,144.5C 123.333,145.167 119.667,145.833 116,146.5C 115.501,151.823 115.334,157.156 115.5,162.5C 112.552,162.777 109.719,162.444 107,161.5C 106.5,148.838 106.333,136.171 106.5,123.5C 113.508,123.334 120.508,123.5 127.5,124C 128.833,126 128.833,128 127.5,130C 123.514,130.499 119.514,130.666 115.5,130.5C 115.5,132.833 115.5,135.167 115.5,137.5C 119.571,137.234 123.571,137.567 127.5,138.5C 128.904,133.194 130.571,128.027 132.5,123C 136.167,122.333 139.833,122.333 143.5,123C 146.035,130.642 147.868,138.475 149,146.5C 148.765,139.159 150.099,132.159 153,125.5C 153.671,124.748 154.504,124.414 155.5,124.5 Z"/></g>
<g><path style="opacity:0.999" fill="#b3b3b3" d="M 132.5,124.5 C 135.777,124.216 138.943,124.549 142,125.5C 146.611,137.048 149.111,149.048 149.5,161.5C 147.738,161.643 146.071,161.309 144.5,160.5C 142.906,157.015 142.24,153.348 142.5,149.5C 139.833,149.5 137.167,149.5 134.5,149.5C 134.156,153.228 133.49,156.895 132.5,160.5C 130.926,161.631 129.259,161.798 127.5,161C 126.919,160.107 126.585,159.107 126.5,158C 128.818,146.882 130.818,135.716 132.5,124.5 Z"/></g>
<g><path style="opacity:0.278" fill="#dfdfdf" d="M 136.5,131.5 C 137.496,131.414 138.329,131.748 139,132.5C 139.828,136.466 140.328,140.466 140.5,144.5C 138.833,144.5 137.167,144.5 135.5,144.5C 136.295,140.215 136.628,135.881 136.5,131.5 Z"/></g>
<g><path style="opacity:0.998" fill="#b3b3b3" d="M 107.5,124.5 C 113.833,124.5 120.167,124.5 126.5,124.5C 126.5,126.167 126.5,127.833 126.5,129.5C 122.167,129.5 117.833,129.5 113.5,129.5C 113.216,132.777 113.549,135.943 114.5,139C 118.152,139.499 121.818,139.665 125.5,139.5C 125.5,141.167 125.5,142.833 125.5,144.5C 121.833,144.5 118.167,144.5 114.5,144.5C 114.5,150.167 114.5,155.833 114.5,161.5C 112.208,161.756 110.041,161.423 108,160.5C 107.5,148.505 107.333,136.505 107.5,124.5 Z"/></g>
<g><path style="opacity:0.033" fill="#e7e7e7" d="M 13.5,123.5 C 17.2326,122.179 21.0659,122.179 25,123.5C 26.9207,130.436 28.5873,137.436 30,144.5C 30.3333,137.833 30.6667,131.167 31,124.5C 31.3826,123.944 31.8826,123.611 32.5,123.5C 32.3335,133.506 32.5002,143.506 33,153.5C 36.6076,161.613 42.441,163.613 50.5,159.5C 52.4799,157.205 53.6466,154.539 54,151.5C 54.6667,142.5 54.6667,133.5 54,124.5C 52.3005,123.594 50.4672,123.261 48.5,123.5C 48.6665,132.839 48.4998,142.173 48,151.5C 46.3924,155.354 43.7258,156.354 40,154.5C 39.5003,146.507 39.3336,138.507 39.5,130.5C 40.3288,137.655 40.8288,144.989 41,152.5C 42.5494,155.003 44.2161,155.003 46,152.5C 46.3333,142.833 46.6667,133.167 47,123.5C 49.6667,122.167 52.3333,122.167 55,123.5C 57.2599,134.944 56.9266,146.277 54,157.5C 49.9038,162.213 44.7371,163.713 38.5,162C 35.9427,161.315 34.1094,159.815 33,157.5C 32.7266,159.101 32.2266,160.601 31.5,162C 29.1667,162.667 26.8333,162.667 24.5,162C 23.0835,159.017 22.2501,155.85 22,152.5C 20.9461,150.246 19.4461,149.913 17.5,151.5C 16.2937,155.072 15.627,158.738 15.5,162.5C 12.6146,162.806 9.9479,162.473 7.5,161.5C 9.60395,161.799 11.604,161.466 13.5,160.5C 14.4898,156.895 15.1564,153.228 15.5,149.5C 18.1667,149.5 20.8333,149.5 23.5,149.5C 23.2633,153.273 23.7633,156.94 25,160.5C 26.6995,161.406 28.5328,161.739 30.5,161.5C 30.665,158.15 30.4983,154.817 30,151.5C 27.6159,142.579 25.6159,133.579 24,124.5C 20.6064,123.544 17.1064,123.211 13.5,123.5 Z"/></g>
<g><path style="opacity:0.998" fill="#b5b5b5" d="M 39.5,130.5 C 39.3336,138.507 39.5003,146.507 40,154.5C 43.7258,156.354 46.3924,155.354 48,151.5C 48.4998,142.173 48.6665,132.839 48.5,123.5C 50.4672,123.261 52.3005,123.594 54,124.5C 54.6667,133.5 54.6667,142.5 54,151.5C 53.6466,154.539 52.4799,157.205 50.5,159.5C 42.441,163.613 36.6076,161.613 33,153.5C 32.5002,143.506 32.3335,133.506 32.5,123.5C 38.8376,121.165 41.171,123.498 39.5,130.5 Z"/></g>
<g><path style="opacity:0.141" fill="#e6e6e6" d="M 217.5,123.5 C 220.642,123.799 222.809,125.466 224,128.5C 225.923,137.515 225.923,146.515 224,155.5C 223.167,159 221,161.167 217.5,162C 213.5,162.667 209.5,162.667 205.5,162C 204.584,161.722 203.918,161.222 203.5,160.5C 207.476,161.331 211.476,161.497 215.5,161C 218.494,160.594 220.661,159.094 222,156.5C 223.58,147.576 223.913,138.576 223,129.5C 221.275,127.391 219.442,125.391 217.5,123.5 Z"/></g>
<g><path style="opacity:0.209" fill="#e6e6e6" d="M 155.5,160.5 C 160.833,161.833 166.167,161.833 171.5,160.5C 171.5,158.833 171.5,157.167 171.5,155.5C 167.563,155.793 163.73,155.46 160,154.5C 158.899,150.448 158.399,146.281 158.5,142C 156.093,130.908 160.426,126.741 171.5,129.5C 171.5,127.833 171.5,126.167 171.5,124.5C 166.175,123.239 160.842,123.239 155.5,124.5C 155.918,123.778 156.584,123.278 157.5,123C 170.738,122.849 183.905,123.349 197,124.5C 197.667,126.167 197.667,127.833 197,129.5C 194.667,130.167 192.333,130.833 190,131.5C 190.462,141.479 190.462,151.479 190,161.5C 186.76,163.036 183.76,162.703 181,160.5C 180.5,150.506 180.334,140.506 180.5,130.5C 177.881,130.768 175.381,130.435 173,129.5C 171.915,130.293 170.748,130.96 169.5,131.5C 166.634,130.205 163.801,130.205 161,131.5C 159,138.833 159,146.167 161,153.5C 164.73,154.46 168.563,154.793 172.5,154.5C 172.958,157.394 172.291,159.894 170.5,162C 166.167,162.667 161.833,162.667 157.5,162C 156.584,161.722 155.918,161.222 155.5,160.5 Z"/></g>
<g><path style="opacity:0.998" fill="#b2b2b2" d="M 174.5,124.5 C 181.5,124.5 188.5,124.5 195.5,124.5C 195.5,126.167 195.5,127.833 195.5,129.5C 193.167,129.5 190.833,129.5 188.5,129.5C 188.5,140.167 188.5,150.833 188.5,161.5C 186.533,161.739 184.699,161.406 183,160.5C 182.5,150.172 182.334,139.839 182.5,129.5C 179.833,129.5 177.167,129.5 174.5,129.5C 174.5,127.833 174.5,126.167 174.5,124.5 Z"/></g>
<g><path style="opacity:0.249" fill="#dcdcdc" d="M 198.5,166.5 C 204.157,165.834 209.99,165.501 216,165.5C 235.005,165.87 253.838,166.537 272.5,167.5C 267.833,167.5 263.167,167.5 258.5,167.5C 249.833,167.5 241.167,167.5 232.5,167.5C 221.346,166.505 210.012,166.172 198.5,166.5 Z"/></g>
<g><path style="opacity:0.318" fill="#b1b1b1" d="M 198.5,166.5 C 210.012,166.172 221.346,166.505 232.5,167.5C 200.802,167.085 169.135,167.752 137.5,169.5C 137.5,169.167 137.5,168.833 137.5,168.5C 157.644,166.88 177.977,166.213 198.5,166.5 Z"/></g>
<g><path style="opacity:1" fill="#141414" d="M 232.5,167.5 C 241.167,167.5 249.833,167.5 258.5,167.5C 264.653,168.328 270.987,168.828 277.5,169C 268.5,169.333 259.5,169.667 250.5,170C 249.944,170.383 249.611,170.883 249.5,171.5C 242.412,173.239 235.079,173.906 227.5,173.5C 220.492,173.334 213.492,173.5 206.5,174C 205.263,174.232 204.263,174.732 203.5,175.5C 199.022,176.047 194.355,176.047 189.5,175.5C 180.267,175.075 171.267,175.741 162.5,177.5C 149.195,178.831 135.862,179.831 122.5,180.5C 112.812,180.891 103.145,181.557 93.5,182.5C 88.8781,182.156 84.5448,182.823 80.5,184.5C 69.022,186.257 57.3553,187.591 45.5,188.5C 38.84,188.306 32.5067,189.306 26.5,191.5C 23.2139,192.207 19.8806,192.54 16.5,192.5C 16.0597,187.828 18.3931,184.828 23.5,183.5C 25.3084,183.509 26.9751,183.009 28.5,182C 27.944,181.617 27.6107,181.117 27.5,180.5C 50.0133,176.686 72.6799,174.019 95.5,172.5C 102.354,172.265 109.021,171.598 115.5,170.5C 122.809,169.752 130.142,169.418 137.5,169.5C 169.135,167.752 200.802,167.085 232.5,167.5 Z"/></g>
<g><path style="opacity:0.158" fill="#d7d7d7" d="M 137.5,168.5 C 137.5,168.833 137.5,169.167 137.5,169.5C 130.142,169.418 122.809,169.752 115.5,170.5C 112.833,170.5 110.167,170.5 107.5,170.5C 117.296,169.021 127.296,168.354 137.5,168.5 Z"/></g>
<g><path style="opacity:0.11" fill="#e4e4e4" d="M 278.5,167.5 C 285.938,167.151 293.272,167.818 300.5,169.5C 298.955,170.452 297.288,170.785 295.5,170.5C 289.931,168.983 284.264,167.983 278.5,167.5 Z"/></g>
<g><path style="opacity:0.453" fill="#8d8d8d" d="M 258.5,167.5 C 263.167,167.5 267.833,167.5 272.5,167.5C 274.5,167.5 276.5,167.5 278.5,167.5C 284.264,167.983 289.931,168.983 295.5,170.5C 280.142,170.249 264.809,170.582 249.5,171.5C 249.611,170.883 249.944,170.383 250.5,170C 259.5,169.667 268.5,169.333 277.5,169C 270.987,168.828 264.653,168.328 258.5,167.5 Z"/></g>
<g><path style="opacity:0.804" fill="#6f6f6f" d="M 107.5,170.5 C 110.167,170.5 112.833,170.5 115.5,170.5C 109.021,171.598 102.354,172.265 95.5,172.5C 95.5,172.167 95.5,171.833 95.5,171.5C 99.2984,170.517 103.298,170.183 107.5,170.5 Z"/></g>
<g><path style="opacity:0.404" fill="#a0a0a0" d="M 227.5,173.5 C 219.66,174.338 211.66,175.005 203.5,175.5C 204.263,174.732 205.263,174.232 206.5,174C 213.492,173.5 220.492,173.334 227.5,173.5 Z"/></g>
<g><path style="opacity:0.314" fill="#b2b2b2" d="M 189.5,175.5 C 180.67,176.442 171.67,177.108 162.5,177.5C 171.267,175.741 180.267,175.075 189.5,175.5 Z"/></g>
<g><path style="opacity:0.696" fill="#616161" d="M 27.5,180.5 C 27.6107,181.117 27.944,181.617 28.5,182C 26.9751,183.009 25.3084,183.509 23.5,183.5C 22.7375,182.732 21.7375,182.232 20.5,182C 22.74,181.023 25.0733,180.523 27.5,180.5 Z"/></g>
<g><path style="opacity:0.318" fill="#a4a4a4" d="M 122.5,180.5 C 113.031,182.029 103.364,183.029 93.5,183.5C 93.5,183.167 93.5,182.833 93.5,182.5C 103.145,181.557 112.812,180.891 122.5,180.5 Z"/></g>
<g><path style="opacity:0.292" fill="#c6c6c6" d="M 95.5,171.5 C 95.5,171.833 95.5,172.167 95.5,172.5C 72.6799,174.019 50.0133,176.686 27.5,180.5C 25.0733,180.523 22.74,181.023 20.5,182C 21.7375,182.232 22.7375,182.732 23.5,183.5C 18.3931,184.828 16.0597,187.828 16.5,192.5C 15.2566,193.737 14.2566,193.404 13.5,191.5C 14.9214,188.465 16.9214,185.965 19.5,184C 18.3543,181.443 19.3543,180.11 22.5,180C 46.6809,175.813 71.0142,172.98 95.5,171.5 Z"/></g>
<g><path style="opacity:0.788" fill="#646464" d="M 93.5,182.5 C 93.5,182.833 93.5,183.167 93.5,183.5C 89.2147,184.295 84.8814,184.628 80.5,184.5C 84.5448,182.823 88.8781,182.156 93.5,182.5 Z"/></g>
<g><path style="opacity:0.404" fill="#989898" d="M 45.5,188.5 C 39.3409,189.763 33.0076,190.763 26.5,191.5C 32.5067,189.306 38.84,188.306 45.5,188.5 Z"/></g>
</svg>
